<svg width="24" height="24" viewBox="0 0 24 24" fill="none" xmlns="http://www.w3.org/2000/svg">
<path d="M5.46937 18.5306C5.53903 18.6004 5.62175 18.6557 5.7128 18.6934C5.80384 18.7312 5.90144 18.7506 6 18.7506C6.09856 18.7506 6.19616 18.7312 6.2872 18.6934C6.37825 18.6557 6.46097 18.6004 6.53063 18.5306L17.25 7.81031V15.75C17.25 15.9489 17.329 16.1397 17.4697 16.2803C17.6103 16.421 17.8011 16.5 18 16.5C18.1989 16.5 18.3897 16.421 18.5303 16.2803C18.671 16.1397 18.75 15.9489 18.75 15.75V6C18.75 5.80109 18.671 5.61032 18.5303 5.46967C18.3897 5.32902 18.1989 5.25 18 5.25H8.25C8.05109 5.25 7.86032 5.32902 7.71967 5.46967C7.57902 5.61032 7.5 5.80109 7.5 6C7.5 6.19891 7.57902 6.38968 7.71967 6.53033C7.86032 6.67098 8.05109 6.75 8.25 6.75H16.1897L5.46937 17.4694C5.39964 17.539 5.34432 17.6217 5.30658 17.7128C5.26884 17.8038 5.24941 17.9014 5.24941 18C5.24941 18.0986 5.26884 18.1962 5.30658 18.2872C5.34432 18.3783 5.39964 18.461 5.46937 18.5306Z" fill="#5A89F5" style="fill:#5A89F5;fill:color(display-p3 0.3529 0.5373 0.9608);fill-opacity:1;"/>
</svg>
