<svg width="32" height="32" viewBox="0 0 32 32" fill="none" xmlns="http://www.w3.org/2000/svg">
<mask id="mask0_129_646" style="mask-type:alpha" maskUnits="userSpaceOnUse" x="0" y="0" width="32" height="32">
<rect width="32" height="32" fill="#D9D9D9" style="fill:#D9D9D9;fill:color(display-p3 0.8510 0.8510 0.8510);fill-opacity:1;"/>
</mask>
<g mask="url(#mask0_129_646)">
<path d="M16.0001 17.4051L20.0976 21.5025C20.2822 21.6872 20.5142 21.7816 20.7937 21.7859C21.0732 21.7902 21.3095 21.6957 21.5027 21.5025C21.6958 21.3094 21.7924 21.0752 21.7924 20.8C21.7924 20.5248 21.6958 20.2906 21.5027 20.0975L17.4052 16L21.5027 11.9025C21.6873 11.7179 21.7817 11.4859 21.786 11.2064C21.7903 10.9269 21.6958 10.6906 21.5027 10.4975C21.3095 10.3043 21.0753 10.2077 20.8001 10.2077C20.5249 10.2077 20.2908 10.3043 20.0976 10.4975L16.0001 14.5949L11.9027 10.4975C11.7181 10.3129 11.486 10.2184 11.2065 10.2141C10.9271 10.2099 10.6908 10.3043 10.4976 10.4975C10.3044 10.6906 10.2078 10.9248 10.2078 11.2C10.2078 11.4752 10.3044 11.7094 10.4976 11.9025L14.595 16L10.4976 20.0975C10.313 20.2821 10.2185 20.5141 10.2143 20.7936C10.21 21.0731 10.3044 21.3094 10.4976 21.5025C10.6908 21.6957 10.9249 21.7923 11.2001 21.7923C11.4753 21.7923 11.7095 21.6957 11.9027 21.5025L16.0001 17.4051ZM16.0024 28.6666C14.2505 28.6666 12.6037 28.3342 11.0622 27.6693C9.5207 27.0044 8.17979 26.1021 7.0395 24.9623C5.89919 23.8225 4.99644 22.4822 4.33126 20.9413C3.66609 19.4005 3.3335 17.7542 3.3335 16.0022C3.3335 14.2503 3.66594 12.6036 4.33083 11.0621C4.99572 9.52057 5.89805 8.17967 7.03783 7.03938C8.17763 5.89907 9.51795 4.99632 11.0588 4.33114C12.5996 3.66596 14.246 3.33337 15.9979 3.33337C17.7498 3.33337 19.3965 3.66582 20.938 4.33071C22.4796 4.9956 23.8205 5.89793 24.9608 7.03771C26.1011 8.17751 27.0038 9.51783 27.669 11.0587C28.3342 12.5995 28.6668 14.2459 28.6668 15.9978C28.6668 17.7497 28.3343 19.3964 27.6694 20.9379C27.0045 22.4794 26.1022 23.8204 24.9624 24.9606C23.8226 26.101 22.4823 27.0037 20.9415 27.6689C19.4006 28.3341 17.7543 28.6666 16.0024 28.6666ZM16.0001 26.6667C18.9779 26.6667 21.5001 25.6333 23.5668 23.5667C25.6335 21.5 26.6668 18.9778 26.6668 16C26.6668 13.0222 25.6335 10.5 23.5668 8.43334C21.5001 6.36667 18.9779 5.33334 16.0001 5.33334C13.0224 5.33334 10.5001 6.36667 8.43346 8.43334C6.3668 10.5 5.33346 13.0222 5.33346 16C5.33346 18.9778 6.3668 21.5 8.43346 23.5667C10.5001 25.6333 13.0224 26.6667 16.0001 26.6667Z" fill="#1C1B1F" style="fill:#1C1B1F;fill:color(display-p3 0.1098 0.1059 0.1216);fill-opacity:1;"/>
</g>
</svg>
