<svg width="18" height="16" viewBox="0 0 18 16" fill="none" xmlns="http://www.w3.org/2000/svg">
<path d="M0.219376 8.53055L6.96937 15.2806C7.11011 15.4213 7.30098 15.5003 7.5 15.5003C7.69902 15.5003 7.88989 15.4213 8.03063 15.2806C8.17136 15.1398 8.25042 14.949 8.25042 14.7499C8.25042 14.5509 8.17136 14.36 8.03063 14.2193L2.56031 8.74993H17.25C17.4489 8.74993 17.6397 8.67091 17.7803 8.53026C17.921 8.38961 18 8.19884 18 7.99993C18 7.80102 17.921 7.61025 17.7803 7.4696C17.6397 7.32895 17.4489 7.24993 17.25 7.24993H2.56031L8.03063 1.78055C8.17136 1.63982 8.25042 1.44895 8.25042 1.24993C8.25042 1.05091 8.17136 0.860034 8.03063 0.719304C7.88989 0.578573 7.69902 0.499512 7.5 0.499512C7.30098 0.499512 7.11011 0.578573 6.96937 0.719304L0.219376 7.4693C0.149643 7.53896 0.0943222 7.62167 0.0565796 7.71272C0.018837 7.80377 -0.000589371 7.90137 -0.000589371 7.99993C-0.000589371 8.09849 0.018837 8.19608 0.0565796 8.28713C0.0943222 8.37818 0.149643 8.4609 0.219376 8.53055Z" fill="#6A737D" style="fill:#6A737D;fill:color(display-p3 0.4157 0.4510 0.4902);fill-opacity:1;"/>
</svg>
