<svg width="21" height="21" viewBox="0 0 21 21" fill="none" xmlns="http://www.w3.org/2000/svg">
<path d="M14.7806 7.71937C14.8504 7.78903 14.9057 7.87175 14.9434 7.96279C14.9812 8.05384 15.0006 8.15144 15.0006 8.25C15.0006 8.34856 14.9812 8.44616 14.9434 8.53721C14.9057 8.62825 14.8504 8.71097 14.7806 8.78063L9.53063 14.0306C9.46097 14.1004 9.37826 14.1557 9.28721 14.1934C9.19616 14.2312 9.09857 14.2506 9 14.2506C8.90144 14.2506 8.80385 14.2312 8.7128 14.1934C8.62175 14.1557 8.53903 14.1004 8.46938 14.0306L6.21938 11.7806C6.07865 11.6399 5.99959 11.449 5.99959 11.25C5.99959 11.051 6.07865 10.8601 6.21938 10.7194C6.36011 10.5786 6.55098 10.4996 6.75 10.4996C6.94903 10.4996 7.1399 10.5786 7.28063 10.7194L9 12.4397L13.7194 7.71937C13.789 7.64964 13.8718 7.59432 13.9628 7.55658C14.0538 7.51884 14.1514 7.49941 14.25 7.49941C14.3486 7.49941 14.4462 7.51884 14.5372 7.55658C14.6283 7.59432 14.711 7.64964 14.7806 7.71937ZM20.25 10.5C20.25 12.4284 19.6782 14.3134 18.6068 15.9168C17.5355 17.5202 16.0127 18.7699 14.2312 19.5078C12.4496 20.2458 10.4892 20.4389 8.59787 20.0627C6.70656 19.6865 4.96928 18.7579 3.60571 17.3943C2.24215 16.0307 1.31355 14.2934 0.937348 12.4021C0.561142 10.5108 0.754225 8.55042 1.49218 6.76884C2.23013 4.98726 3.47982 3.46451 5.08319 2.39317C6.68657 1.32183 8.57164 0.75 10.5 0.75C13.085 0.75273 15.5634 1.78084 17.3913 3.60872C19.2192 5.43661 20.2473 7.91498 20.25 10.5ZM18.75 10.5C18.75 8.8683 18.2661 7.27325 17.3596 5.91655C16.4531 4.55984 15.1646 3.50242 13.6571 2.87799C12.1497 2.25357 10.4909 2.09019 8.89051 2.40852C7.29017 2.72685 5.82016 3.51259 4.66637 4.66637C3.51259 5.82015 2.72685 7.29016 2.40853 8.8905C2.0902 10.4908 2.25358 12.1496 2.878 13.6571C3.50242 15.1646 4.55984 16.4531 5.91655 17.3596C7.27326 18.2661 8.86831 18.75 10.5 18.75C12.6873 18.7475 14.7843 17.8775 16.3309 16.3309C17.8775 14.7843 18.7475 12.6873 18.75 10.5Z" fill="#959DA5" style="fill:#959DA5;fill:color(display-p3 0.5843 0.6157 0.6471);fill-opacity:1;"/>
</svg>
