<svg width="27" height="27" viewBox="0 0 27 27" fill="none" xmlns="http://www.w3.org/2000/svg">
<path d="M13.5 0.5C10.9288 0.5 8.41543 1.26244 6.27759 2.6909C4.13975 4.11935 2.47351 6.14968 1.48957 8.52512C0.505633 10.9006 0.248189 13.5144 0.749797 16.0362C1.25141 18.5579 2.48953 20.8743 4.30762 22.6924C6.1257 24.5105 8.44208 25.7486 10.9638 26.2502C13.4856 26.7518 16.0995 26.4944 18.4749 25.5104C20.8503 24.5265 22.8807 22.8603 24.3091 20.7224C25.7376 18.5846 26.5 16.0712 26.5 13.5C26.4964 10.0533 25.1256 6.74882 22.6884 4.31163C20.2512 1.87445 16.9467 0.50364 13.5 0.5ZM19.2075 11.2075L12.2075 18.2075C12.1146 18.3005 12.0043 18.3742 11.8829 18.4246C11.7615 18.4749 11.6314 18.5008 11.5 18.5008C11.3686 18.5008 11.2385 18.4749 11.1171 18.4246C10.9957 18.3742 10.8854 18.3005 10.7925 18.2075L7.79251 15.2075C7.60486 15.0199 7.49945 14.7654 7.49945 14.5C7.49945 14.2346 7.60486 13.9801 7.79251 13.7925C7.98015 13.6049 8.23464 13.4994 8.50001 13.4994C8.76537 13.4994 9.01987 13.6049 9.20751 13.7925L11.5 16.0863L17.7925 9.7925C17.8854 9.69959 17.9957 9.62589 18.1171 9.57561C18.2385 9.52532 18.3686 9.49944 18.5 9.49944C18.6314 9.49944 18.7615 9.52532 18.8829 9.57561C19.0043 9.62589 19.1146 9.69959 19.2075 9.7925C19.3004 9.88541 19.3741 9.99571 19.4244 10.1171C19.4747 10.2385 19.5006 10.3686 19.5006 10.5C19.5006 10.6314 19.4747 10.7615 19.4244 10.8829C19.3741 11.0043 19.3004 11.1146 19.2075 11.2075Z" fill="#6A737D" style="fill:#6A737D;fill:color(display-p3 0.4157 0.4510 0.4902);fill-opacity:1;"/>
</svg>
