<svg width="186" height="40" viewBox="0 0 186 40" fill="none" xmlns="http://www.w3.org/2000/svg">
<g clip-path="url(#clip0_141_90)">
<path d="M14.8475 26.2902C15.4626 24.4631 16.0281 22.7869 16.5901 21.1107C18.4184 15.6516 20.2518 10.1941 22.0664 4.72985C22.2172 4.27521 22.4399 4.0985 22.9283 4.10536C24.7411 4.13109 26.5557 4.13453 28.3703 4.10364C28.898 4.09507 29.1396 4.27178 29.3024 4.77617C31.5779 11.8823 33.8722 18.9833 36.1614 26.0861C36.1871 26.165 36.2163 26.2422 36.2471 26.3314C36.4664 26.2216 36.4441 26.0003 36.5007 25.8339C38.8087 18.8289 41.1151 11.824 43.4026 4.8122C43.5705 4.29751 43.8001 4.09164 44.3587 4.10193C46.1201 4.13624 47.8816 4.11394 49.643 4.11565C50.5015 4.11565 50.618 4.28035 50.3439 5.12273C48.8703 9.63656 47.395 14.1521 45.9197 18.6642C44.1188 24.1697 42.3094 29.6717 40.5256 35.1824C40.3697 35.6662 40.1178 35.7897 39.6552 35.7863C37.4757 35.7691 35.2944 35.7657 33.1149 35.7897C32.6094 35.7948 32.3746 35.6198 32.2204 35.1395C30.0563 28.4176 27.8751 21.7009 25.6904 14.9859C25.6458 14.8469 25.6578 14.6634 25.4505 14.5604C24.8096 16.4734 24.1688 18.3794 23.5297 20.2838C21.8642 25.2471 20.1953 30.2087 18.5452 35.1772C18.3995 35.6164 18.1905 35.7897 17.7279 35.7863C15.5123 35.7691 13.2968 35.7708 11.083 35.7863C10.6409 35.7897 10.4387 35.6164 10.3034 35.2012C7.00836 25.1339 3.70306 15.07 0.399481 5.00607C0.166449 4.31295 0.308667 4.11737 1.04032 4.11737C3.02795 4.11565 5.0173 4.13281 7.00493 4.10708C7.52582 4.10021 7.77771 4.2632 7.94049 4.77274C10.1903 11.8326 12.4606 18.8873 14.7276 25.9419C14.7481 26.0037 14.7704 26.0655 14.8475 26.2902Z" fill="#17224D"/>
<path d="M52.8386 19.9373C52.8386 14.9808 52.8386 10.0244 52.8386 5.0679C52.8386 4.29758 53.0203 4.11572 53.7896 4.11572C61.1336 4.11572 68.4775 4.11572 75.8215 4.11572C76.5874 4.11572 76.757 4.29243 76.7587 5.07991C76.7604 6.38894 76.7587 7.69797 76.7587 9.00699C76.7587 9.90084 76.6045 10.0518 75.6827 10.0518C70.693 10.0518 65.7051 10.057 60.7155 10.0415C60.2802 10.0398 60.126 10.1101 60.1346 10.5957C60.1689 12.5326 60.162 14.4696 60.138 16.4065C60.1329 16.8148 60.2563 16.8835 60.6332 16.8818C65.0471 16.868 69.4593 16.8732 73.8732 16.8732C74.6597 16.8732 74.8208 17.0344 74.8208 17.8168C74.8208 19.0915 74.8208 20.3645 74.8208 21.6392C74.8208 22.4318 74.6375 22.6154 73.8321 22.6154C69.4542 22.6171 65.0763 22.6257 60.6966 22.6034C60.2203 22.6017 60.1329 22.7355 60.138 23.1798C60.162 25.2214 60.1689 27.2631 60.1346 29.3047C60.126 29.8073 60.2888 29.8863 60.7412 29.8845C65.921 29.8691 71.1026 29.8742 76.2824 29.8742C77.1974 29.8742 77.3482 30.0218 77.3482 30.9259C77.3482 32.2693 77.3516 33.6143 77.3465 34.9577C77.3447 35.5959 77.1391 35.8086 76.5017 35.8086C68.8956 35.8121 61.2912 35.8121 53.6851 35.8086C53.0391 35.8086 52.8369 35.5856 52.8369 34.9079C52.8386 29.9206 52.8386 24.9298 52.8386 19.9373Z" fill="#17224D"/>
<path d="M145.257 25.4633C143.32 26.28 141.386 27.1035 139.445 27.9098C129.859 31.8901 120.271 35.8652 110.684 39.8403C109.902 40.1646 109.693 40.0205 109.693 39.1558C109.693 36.2066 109.705 33.2574 109.681 30.3083C109.678 29.7833 109.861 29.5328 110.338 29.3424C118.069 26.2456 125.795 23.1352 133.521 20.0265C133.68 19.963 133.835 19.8824 133.991 19.8103C134.049 19.8103 134.109 19.8103 134.169 19.8103C134.301 19.8892 134.429 19.9784 134.568 20.0471C137.191 21.3681 139.816 22.6823 142.438 24.0067C143.38 24.4837 144.316 24.9778 145.257 25.4633Z" fill="#17224D"/>
<path d="M134.167 19.8104C134.107 19.8104 134.049 19.8104 133.989 19.8104C132.26 19.0778 130.533 18.3349 128.799 17.6127C122.625 15.0409 116.451 12.4743 110.273 9.91633C109.863 9.74648 109.678 9.52517 109.682 9.06366C109.699 6.28777 109.688 3.51359 109.692 0.737691C109.692 0.0274185 109.952 -0.151007 110.6 0.118347C122.109 4.91526 133.617 9.71389 145.126 14.5125C145.174 14.5331 145.217 14.5623 145.264 14.588C143.997 15.2863 142.656 15.8267 141.352 16.446C138.963 17.5835 136.562 18.6918 134.167 19.8104Z" fill="#007FFF"/>
<path d="M177.975 24.9024C177.975 21.6067 177.975 18.3109 177.975 15.0152C177.975 14.2655 178.106 14.1368 178.861 14.1368C180.64 14.1351 182.417 14.1351 184.195 14.1368C184.958 14.1368 185.09 14.2637 185.09 15.0066C185.091 21.6341 185.091 28.2599 185.09 34.8874C185.09 35.6337 184.949 35.7778 184.204 35.7778C182.425 35.7812 180.648 35.7812 178.87 35.7778C178.119 35.7761 177.975 35.6337 177.975 34.896C177.974 31.5625 177.975 28.2324 177.975 24.9024Z" fill="#17224D"/>
<path d="M134.167 19.8103C136.562 18.6917 138.963 17.5834 141.35 16.4476C142.654 15.8283 143.995 15.2879 145.262 14.5896C145.683 14.6702 145.61 15.0048 145.611 15.2896C145.615 18.2456 145.613 21.2017 145.613 24.156C145.613 24.4339 145.618 24.7118 145.611 24.9898C145.606 25.2265 145.568 25.4496 145.257 25.4616C144.318 24.976 143.382 24.4819 142.438 24.005C139.816 22.6822 137.191 21.3664 134.568 20.0453C134.429 19.9784 134.301 19.8892 134.167 19.8103Z" fill="#056CDB"/>
<path d="M181.567 11.1344C180.59 11.1344 179.614 11.1224 178.639 11.1395C178.178 11.1481 177.965 10.9817 177.969 10.503C177.979 8.58497 177.977 6.66517 177.97 4.7471C177.969 4.30961 178.154 4.11231 178.597 4.11403C180.549 4.12089 182.502 4.1226 184.456 4.11403C184.891 4.11231 185.098 4.28559 185.097 4.73165C185.09 6.66689 185.092 8.60384 185.097 10.5391C185.098 10.9525 184.92 11.143 184.497 11.1378C183.519 11.1258 182.542 11.1344 181.567 11.1344Z" fill="#17224D"/>
</g>
<defs>
<clipPath id="clip0_141_90">
<rect width="184.8" height="40" fill="white" transform="translate(0.294922)"/>
</clipPath>
</defs>
</svg>
