<svg width="232" height="51" viewBox="0 0 232 51" fill="none" xmlns="http://www.w3.org/2000/svg">
<g clip-path="url(#clip0_457_687)">
<path d="M18.5309 33.2695C19.2998 30.9856 20.0066 28.8904 20.7091 26.7951C22.9945 19.9712 25.2863 13.1494 27.5545 6.31905C27.743 5.75075 28.0214 5.52986 28.6318 5.53844C30.8979 5.57061 33.1661 5.5749 35.4343 5.53629C36.094 5.52557 36.396 5.74646 36.5995 6.37695C39.4438 15.2596 42.3118 24.1359 45.1733 33.0143C45.2054 33.113 45.2418 33.2095 45.2804 33.321C45.5545 33.1837 45.5267 32.9071 45.5974 32.6991C48.4824 23.9429 51.3654 15.1867 54.2247 6.42199C54.4346 5.77863 54.7216 5.52128 55.4199 5.53415C57.6217 5.57704 59.8235 5.54916 62.0253 5.55131C63.0984 5.55131 63.244 5.75718 62.9013 6.81015C61.0593 12.4524 59.2152 18.0969 57.3711 23.737C55.12 30.6189 52.8582 37.4964 50.6286 44.3847C50.4337 44.9894 50.1188 45.1438 49.5405 45.1395C46.8161 45.1181 44.0895 45.1138 41.3651 45.1438C40.7332 45.1503 40.4398 44.9315 40.247 44.3311C37.5419 35.9287 34.8153 27.5329 32.0845 19.1391C32.0288 18.9654 32.0438 18.736 31.7846 18.6073C30.9836 20.9984 30.1825 23.381 29.3836 25.7615C27.3017 31.9656 25.2156 38.1676 23.153 44.3782C22.9709 44.9272 22.7096 45.1438 22.1313 45.1395C19.3619 45.1181 16.5925 45.1203 13.8252 45.1395C13.2727 45.1438 13.0199 44.9272 12.8507 44.4083C8.73194 31.8241 4.60032 19.2442 0.470848 6.66432C0.179558 5.79793 0.357331 5.55345 1.2719 5.55345C3.75644 5.55131 6.24312 5.57275 8.72766 5.54058C9.37878 5.53201 9.69363 5.73574 9.89711 6.37267C12.7093 15.1975 15.5473 24.0158 18.381 32.8342C18.4067 32.9114 18.4345 32.9886 18.5309 33.2695Z" fill="#17224D"/>
<path d="M66.0197 25.3282C66.0197 19.1327 66.0197 12.9371 66.0197 6.74149C66.0197 5.77859 66.2468 5.55127 67.2084 5.55127C76.3884 5.55127 85.5683 5.55127 94.7483 5.55127C95.7057 5.55127 95.9177 5.77216 95.9199 6.7565C95.922 8.39279 95.9199 10.0291 95.9199 11.6654C95.9199 12.7827 95.7271 12.9714 94.5748 12.9714C88.3377 12.9714 82.1028 12.9778 75.8658 12.9585C75.3217 12.9564 75.129 13.0443 75.1397 13.6512C75.1825 16.0724 75.174 18.4936 75.144 20.9148C75.1375 21.4252 75.2918 21.511 75.763 21.5088C81.2804 21.4917 86.7956 21.4981 92.313 21.4981C93.2961 21.4981 93.4974 21.6997 93.4974 22.6776C93.4974 24.271 93.4974 25.8622 93.4974 27.4556C93.4974 28.4464 93.2683 28.6759 92.2616 28.6759C86.7892 28.678 81.3168 28.6887 75.8422 28.6609C75.2468 28.6587 75.1375 28.826 75.144 29.3814C75.174 31.9334 75.1825 34.4854 75.1397 37.0374C75.129 37.6658 75.3325 37.7644 75.8979 37.7623C82.3727 37.743 88.8496 37.7494 95.3244 37.7494C96.4682 37.7494 96.6567 37.9338 96.6567 39.064C96.6567 40.7432 96.6609 42.4245 96.6545 44.1037C96.6524 44.9015 96.3954 45.1674 95.5986 45.1674C86.0909 45.1717 76.5854 45.1717 67.0778 45.1674C66.2703 45.1674 66.0176 44.8886 66.0176 44.0415C66.0197 37.8073 66.0197 31.5689 66.0197 25.3282Z" fill="#17224D"/>
<path d="M181.542 32.2357C179.122 33.2565 176.704 34.2859 174.277 35.2938C162.296 40.2692 150.31 45.2381 138.326 50.207C137.35 50.6123 137.088 50.4321 137.088 49.3513C137.088 45.6648 137.103 41.9784 137.073 38.2919C137.069 37.6357 137.298 37.3226 137.894 37.0845C147.558 33.2136 157.215 29.3256 166.873 25.4396C167.072 25.3603 167.265 25.2595 167.46 25.1694C167.532 25.1694 167.607 25.1694 167.682 25.1694C167.847 25.2681 168.008 25.3796 168.181 25.4654C171.461 27.1167 174.742 28.7594 178.019 30.415C179.197 31.0112 180.366 31.6288 181.542 32.2357Z" fill="#17224D"/>
<path d="M167.68 25.1695C167.605 25.1695 167.532 25.1695 167.457 25.1695C165.296 24.2538 163.137 23.3252 160.97 22.4223C153.253 19.2077 145.536 15.9994 137.812 12.8019C137.3 12.5896 137.069 12.313 137.073 11.7361C137.095 8.2662 137.082 4.79848 137.086 1.32861C137.086 0.440767 137.412 0.217735 138.221 0.554428C152.608 6.55057 166.993 12.5489 181.379 18.5471C181.439 18.5729 181.493 18.6093 181.551 18.6415C179.968 19.5143 178.291 20.1899 176.661 20.964C173.675 22.3859 170.675 23.7712 167.68 25.1695Z" fill="#007FFF"/>
<path d="M222.441 31.5345C222.441 27.4149 222.441 23.2952 222.441 19.1755C222.441 18.2384 222.604 18.0775 223.548 18.0775C225.771 18.0754 227.993 18.0754 230.216 18.0775C231.169 18.0775 231.334 18.2362 231.334 19.1648C231.336 27.4492 231.336 35.7314 231.334 44.0158C231.334 44.9487 231.158 45.1288 230.226 45.1288C228.003 45.1331 225.782 45.1331 223.559 45.1288C222.621 45.1266 222.441 44.9487 222.441 44.0265C222.439 39.8597 222.441 35.6971 222.441 31.5345Z" fill="#17224D"/>
<path d="M167.68 25.1694C170.674 23.7712 173.675 22.3858 176.659 20.9661C178.289 20.1919 179.966 19.5164 181.549 18.6436C182.076 18.7443 181.983 19.1625 181.986 19.5185C181.99 23.2136 181.988 26.9086 181.988 30.6015C181.988 30.9489 181.994 31.2964 181.986 31.6438C181.979 31.9397 181.932 32.2185 181.542 32.2335C180.368 31.6266 179.199 31.009 178.019 30.4128C174.742 28.7594 171.461 27.1145 168.181 25.4632C168.008 25.3796 167.847 25.268 167.68 25.1694Z" fill="#056CDB"/>
<path d="M226.93 14.3246C225.709 14.3246 224.488 14.3095 223.27 14.331C222.693 14.3417 222.428 14.1337 222.432 13.5354C222.445 11.1378 222.443 8.73802 222.434 6.34042C222.432 5.79357 222.663 5.54694 223.218 5.54909C225.658 5.55767 228.1 5.55981 230.541 5.54909C231.085 5.54694 231.344 5.76354 231.342 6.32112C231.334 8.74017 231.336 11.1614 231.342 13.5804C231.344 14.0972 231.122 14.3353 230.593 14.3288C229.37 14.3138 228.149 14.3246 226.93 14.3246Z" fill="#17224D"/>
</g>
<defs>
<clipPath id="clip0_457_687">
<rect width="231" height="50" fill="white" transform="translate(0.340332 0.406494)"/>
</clipPath>
</defs>
</svg>
