<svg width="4" height="15" viewBox="0 0 4 15" fill="none" xmlns="http://www.w3.org/2000/svg">
<path d="M1.99997 14.7692C1.58749 14.7692 1.23438 14.6223 0.940625 14.3286C0.646875 14.0348 0.5 13.6817 0.5 13.2692C0.5 12.8567 0.646875 12.5036 0.940625 12.2099C1.23438 11.9161 1.58749 11.7693 1.99997 11.7693C2.41246 11.7693 2.76558 11.9161 3.05933 12.2099C3.35308 12.5036 3.49995 12.8567 3.49995 13.2692C3.49995 13.6817 3.35308 14.0348 3.05933 14.3286C2.76558 14.6223 2.41246 14.7692 1.99997 14.7692ZM1.99997 8.99999C1.58749 8.99999 1.23438 8.85311 0.940625 8.55936C0.646875 8.26561 0.5 7.91249 0.5 7.50001C0.5 7.08753 0.646875 6.73441 0.940625 6.44066C1.23438 6.14691 1.58749 6.00004 1.99997 6.00004C2.41246 6.00004 2.76558 6.14691 3.05933 6.44066C3.35308 6.73441 3.49995 7.08753 3.49995 7.50001C3.49995 7.91249 3.35308 8.26561 3.05933 8.55936C2.76558 8.85311 2.41246 8.99999 1.99997 8.99999ZM1.99997 3.23076C1.58749 3.23076 1.23438 3.08389 0.940625 2.79014C0.646875 2.4964 0.5 2.14329 0.5 1.73079C0.5 1.3183 0.646875 0.965186 0.940625 0.671436C1.23438 0.377702 1.58749 0.230835 1.99997 0.230835C2.41246 0.230835 2.76558 0.377702 3.05933 0.671436C3.35308 0.965186 3.49995 1.3183 3.49995 1.73079C3.49995 2.14329 3.35308 2.4964 3.05933 2.79014C2.76558 3.08389 2.41246 3.23076 1.99997 3.23076Z" fill="#1C1B1F" style="fill:#1C1B1F;fill:color(display-p3 0.1098 0.1059 0.1216);fill-opacity:1;"/>
</svg>
