<svg width="50" height="50" viewBox="0 0 50 50" fill="none" xmlns="http://www.w3.org/2000/svg">
<path d="M45.7031 34.3516C45.2631 34.8501 44.7221 35.2494 44.116 35.5229C43.5098 35.7963 42.8525 35.9376 42.1875 35.9375H31.25V39.0625C31.25 41.1345 30.4269 43.1216 28.9618 44.5868C27.4966 46.0519 25.5095 46.875 23.4375 46.875C23.1472 46.8752 22.8626 46.7945 22.6156 46.6421C22.3686 46.4896 22.169 46.2713 22.0391 46.0117L14.6602 31.25H6.25C5.4212 31.25 4.62634 30.9208 4.04029 30.3347C3.45424 29.7487 3.125 28.9538 3.125 28.125V10.9375C3.125 10.1087 3.45424 9.31384 4.04029 8.72779C4.62634 8.14174 5.4212 7.8125 6.25 7.8125H39.8438C40.9858 7.81211 42.0886 8.22863 42.9452 8.98384C43.8019 9.73906 44.3533 10.781 44.4961 11.9141L46.8398 30.6641C46.9229 31.3242 46.8645 31.9944 46.6685 32.6302C46.4725 33.266 46.1434 33.8528 45.7031 34.3516ZM6.25 28.125H14.0625V10.9375H6.25V28.125ZM43.7383 31.0547L41.3945 12.3047C41.3469 11.927 41.1631 11.5797 40.8776 11.3279C40.592 11.0762 40.2244 10.9374 39.8438 10.9375H17.1875V29.3184L24.3574 43.6602C25.4201 43.4475 26.3762 42.8731 27.0632 42.0349C27.7501 41.1966 28.1253 40.1463 28.125 39.0625V34.375C28.125 33.9606 28.2896 33.5632 28.5826 33.2701C28.8757 32.9771 29.2731 32.8125 29.6875 32.8125H42.1875C42.4092 32.8126 42.6284 32.7655 42.8305 32.6743C43.0327 32.5831 43.213 32.45 43.3597 32.2837C43.5064 32.1174 43.616 31.9218 43.6813 31.7099C43.7466 31.498 43.766 31.2747 43.7383 31.0547Z" fill="#CD3843" style="fill:#CD3843;fill:color(display-p3 0.8042 0.2178 0.2634);fill-opacity:1;"/>
</svg>
